<mxfile host="app.diagrams.net" modified="2023-05-15T20:11:56.651Z" agent="Mozilla/5.0 (Windows NT 10.0; Win64; x64) AppleWebKit/537.36 (KHTML, like Gecko) Chrome/112.0.0.0 Safari/537.36 OPR/98.0.0.0" etag="5WTc8J-tX9FHkma8Kk7s" version="21.3.0">
  <diagram name="Página-1" id="2NCKRFm3kJzcGgMdM68o">
    <mxGraphModel dx="1362" dy="638" grid="1" gridSize="10" guides="1" tooltips="1" connect="1" arrows="1" fold="1" page="1" pageScale="1" pageWidth="827" pageHeight="1169" math="0" shadow="0">
      <root>
        <mxCell id="0" />
        <mxCell id="1" parent="0" />
        <mxCell id="nVXfbZYXNtMGM9QAss3K-16" style="edgeStyle=orthogonalEdgeStyle;rounded=0;orthogonalLoop=1;jettySize=auto;html=1;entryX=0;entryY=0.5;entryDx=0;entryDy=0;" edge="1" parent="1" source="nVXfbZYXNtMGM9QAss3K-1" target="nVXfbZYXNtMGM9QAss3K-8">
          <mxGeometry relative="1" as="geometry" />
        </mxCell>
        <mxCell id="nVXfbZYXNtMGM9QAss3K-1" value="Final de Carrera&lt;br style=&quot;border-color: var(--border-color);&quot;&gt;A0" style="shape=parallelogram;perimeter=parallelogramPerimeter;whiteSpace=wrap;html=1;fixedSize=1;" vertex="1" parent="1">
          <mxGeometry x="230" y="425" width="120" height="60" as="geometry" />
        </mxCell>
        <mxCell id="nVXfbZYXNtMGM9QAss3K-17" style="edgeStyle=orthogonalEdgeStyle;rounded=0;orthogonalLoop=1;jettySize=auto;html=1;entryX=0;entryY=0.5;entryDx=0;entryDy=0;" edge="1" parent="1" source="nVXfbZYXNtMGM9QAss3K-2" target="nVXfbZYXNtMGM9QAss3K-8">
          <mxGeometry relative="1" as="geometry" />
        </mxCell>
        <mxCell id="nVXfbZYXNtMGM9QAss3K-2" value="Final de Carrera &lt;br&gt;A1" style="shape=parallelogram;perimeter=parallelogramPerimeter;whiteSpace=wrap;html=1;fixedSize=1;" vertex="1" parent="1">
          <mxGeometry x="230" y="505" width="120" height="60" as="geometry" />
        </mxCell>
        <mxCell id="nVXfbZYXNtMGM9QAss3K-18" style="edgeStyle=orthogonalEdgeStyle;rounded=0;orthogonalLoop=1;jettySize=auto;html=1;entryX=0;entryY=0.5;entryDx=0;entryDy=0;" edge="1" parent="1" source="nVXfbZYXNtMGM9QAss3K-3" target="nVXfbZYXNtMGM9QAss3K-8">
          <mxGeometry relative="1" as="geometry" />
        </mxCell>
        <mxCell id="nVXfbZYXNtMGM9QAss3K-3" value="Final de Carrera&lt;br style=&quot;border-color: var(--border-color);&quot;&gt;B0" style="shape=parallelogram;perimeter=parallelogramPerimeter;whiteSpace=wrap;html=1;fixedSize=1;" vertex="1" parent="1">
          <mxGeometry x="230" y="585" width="120" height="60" as="geometry" />
        </mxCell>
        <mxCell id="nVXfbZYXNtMGM9QAss3K-19" style="edgeStyle=orthogonalEdgeStyle;rounded=0;orthogonalLoop=1;jettySize=auto;html=1;entryX=0;entryY=0.5;entryDx=0;entryDy=0;" edge="1" parent="1" source="nVXfbZYXNtMGM9QAss3K-4" target="nVXfbZYXNtMGM9QAss3K-8">
          <mxGeometry relative="1" as="geometry" />
        </mxCell>
        <mxCell id="nVXfbZYXNtMGM9QAss3K-4" value="Final de Carrera&lt;br style=&quot;border-color: var(--border-color);&quot;&gt;B1" style="shape=parallelogram;perimeter=parallelogramPerimeter;whiteSpace=wrap;html=1;fixedSize=1;" vertex="1" parent="1">
          <mxGeometry x="230" y="665" width="120" height="60" as="geometry" />
        </mxCell>
        <mxCell id="nVXfbZYXNtMGM9QAss3K-13" style="edgeStyle=orthogonalEdgeStyle;rounded=0;orthogonalLoop=1;jettySize=auto;html=1;entryX=0;entryY=0.5;entryDx=0;entryDy=0;" edge="1" parent="1" source="nVXfbZYXNtMGM9QAss3K-5" target="nVXfbZYXNtMGM9QAss3K-8">
          <mxGeometry relative="1" as="geometry" />
        </mxCell>
        <mxCell id="nVXfbZYXNtMGM9QAss3K-5" value="Pulsador de &lt;br&gt;arranque #1" style="shape=parallelogram;perimeter=parallelogramPerimeter;whiteSpace=wrap;html=1;fixedSize=1;" vertex="1" parent="1">
          <mxGeometry x="230" y="203" width="120" height="60" as="geometry" />
        </mxCell>
        <mxCell id="nVXfbZYXNtMGM9QAss3K-14" style="edgeStyle=orthogonalEdgeStyle;rounded=0;orthogonalLoop=1;jettySize=auto;html=1;entryX=0;entryY=0.5;entryDx=0;entryDy=0;" edge="1" parent="1" source="nVXfbZYXNtMGM9QAss3K-6" target="nVXfbZYXNtMGM9QAss3K-8">
          <mxGeometry relative="1" as="geometry" />
        </mxCell>
        <mxCell id="nVXfbZYXNtMGM9QAss3K-6" value="Pulsador de&lt;br style=&quot;border-color: var(--border-color);&quot;&gt;arranque #2" style="shape=parallelogram;perimeter=parallelogramPerimeter;whiteSpace=wrap;html=1;fixedSize=1;" vertex="1" parent="1">
          <mxGeometry x="230" y="273" width="120" height="60" as="geometry" />
        </mxCell>
        <mxCell id="nVXfbZYXNtMGM9QAss3K-15" style="edgeStyle=orthogonalEdgeStyle;rounded=0;orthogonalLoop=1;jettySize=auto;html=1;entryX=0;entryY=0.5;entryDx=0;entryDy=0;" edge="1" parent="1" source="nVXfbZYXNtMGM9QAss3K-7" target="nVXfbZYXNtMGM9QAss3K-8">
          <mxGeometry relative="1" as="geometry" />
        </mxCell>
        <mxCell id="nVXfbZYXNtMGM9QAss3K-7" value="Interruptor de emergencia" style="shape=parallelogram;perimeter=parallelogramPerimeter;whiteSpace=wrap;html=1;fixedSize=1;" vertex="1" parent="1">
          <mxGeometry x="230" y="353" width="120" height="60" as="geometry" />
        </mxCell>
        <mxCell id="nVXfbZYXNtMGM9QAss3K-11" style="edgeStyle=orthogonalEdgeStyle;rounded=0;orthogonalLoop=1;jettySize=auto;html=1;entryX=-0.019;entryY=0.58;entryDx=0;entryDy=0;entryPerimeter=0;" edge="1" parent="1" source="nVXfbZYXNtMGM9QAss3K-8" target="nVXfbZYXNtMGM9QAss3K-9">
          <mxGeometry relative="1" as="geometry" />
        </mxCell>
        <mxCell id="nVXfbZYXNtMGM9QAss3K-12" style="edgeStyle=orthogonalEdgeStyle;rounded=0;orthogonalLoop=1;jettySize=auto;html=1;entryX=0;entryY=0.5;entryDx=0;entryDy=0;" edge="1" parent="1" source="nVXfbZYXNtMGM9QAss3K-8" target="nVXfbZYXNtMGM9QAss3K-10">
          <mxGeometry relative="1" as="geometry" />
        </mxCell>
        <mxCell id="nVXfbZYXNtMGM9QAss3K-8" value="&lt;font style=&quot;font-size: 18px;&quot;&gt;Sistema neumático&lt;/font&gt;" style="rounded=1;whiteSpace=wrap;html=1;" vertex="1" parent="1">
          <mxGeometry x="460" y="390" width="130" height="130" as="geometry" />
        </mxCell>
        <mxCell id="nVXfbZYXNtMGM9QAss3K-9" value="Posición cilindro neumático de doble efecto A" style="rounded=1;whiteSpace=wrap;html=1;" vertex="1" parent="1">
          <mxGeometry x="650" y="370" width="130" height="70" as="geometry" />
        </mxCell>
        <mxCell id="nVXfbZYXNtMGM9QAss3K-10" value="Posición cilindro neumático de doble efecto B" style="rounded=1;whiteSpace=wrap;html=1;" vertex="1" parent="1">
          <mxGeometry x="650" y="480" width="130" height="70" as="geometry" />
        </mxCell>
        <mxCell id="nVXfbZYXNtMGM9QAss3K-20" value="&lt;font style=&quot;font-size: 24px;&quot;&gt;Entradas&lt;/font&gt;" style="swimlane;whiteSpace=wrap;html=1;startSize=70;" vertex="1" parent="1">
          <mxGeometry x="210" y="120" width="210" height="620" as="geometry">
            <mxRectangle x="210" y="120" width="140" height="70" as="alternateBounds" />
          </mxGeometry>
        </mxCell>
        <mxCell id="nVXfbZYXNtMGM9QAss3K-21" value="&lt;font style=&quot;font-size: 24px;&quot;&gt;Proceso&lt;/font&gt;" style="swimlane;whiteSpace=wrap;html=1;startSize=70;" vertex="1" parent="1">
          <mxGeometry x="420" y="120" width="190" height="620" as="geometry" />
        </mxCell>
        <mxCell id="nVXfbZYXNtMGM9QAss3K-22" value="&lt;font style=&quot;font-size: 24px;&quot;&gt;Salidas&lt;/font&gt;" style="swimlane;whiteSpace=wrap;html=1;startSize=70;" vertex="1" parent="1">
          <mxGeometry x="610" y="120" width="190" height="620" as="geometry" />
        </mxCell>
      </root>
    </mxGraphModel>
  </diagram>
</mxfile>
